<?xml version="1.0" encoding="UTF-8"?>
<svg width="32px" height="32px" viewBox="0 0 32 32" version="1.1" xmlns="http://www.w3.org/2000/svg" xmlns:xlink="http://www.w3.org/1999/xlink">
    <title>编组 26备份</title>
    <defs>
        <rect id="path-1" x="0" y="0" width="32" height="32"></rect>
        <path d="M12.5837491,0.188065892 L23.5837491,8.09663873 C23.8450792,8.28452492 24,8.58671163 24,8.90857284 L24,22.768373 C24,23.3206577 23.5522847,23.768373 23,23.768373 L16.817,23.768 L13.6414224,15.9784034 C13.4980453,15.6266182 13.2741202,15.3267831 12.9926942,15.11312 L12.8472962,15.0136279 C11.9205907,14.4451945 10.7960429,14.9050534 10.3585776,15.9784034 L7.183,23.768 L1,23.768373 C0.44771525,23.768373 6.76353751e-17,23.3206577 0,22.768373 L0,8.90857284 C5.3232373e-16,8.58671163 0.154920813,8.28452492 0.416250906,8.09663873 L11.4162509,0.188065892 C11.7650243,-0.0626886307 12.2349757,-0.0626886307 12.5837491,0.188065892 Z M11.6387536,16.5796474 C11.7543101,16.2961219 11.9747002,16.2059982 12.1540382,16.3160026 C12.2374112,16.3671429 12.3118608,16.4584764 12.3612464,16.5796474 L15.29,23.768 L8.709,23.768 Z" id="path-3"></path>
    </defs>
    <g id="行情页" stroke="none" stroke-width="1" fill="none" fill-rule="evenodd">
        <g id="编组-26备份">
            <mask id="mask-2" fill="white">
                <use xlink:href="#path-1"></use>
            </mask>
            <g id="蒙版"></g>
            <g id="编组-26" mask="url(#mask-2)">
                <g transform="translate(4.000000, 4.231627)" id="路径">
                    <mask id="mask-4" fill="white">
                        <use xlink:href="#path-3"></use>
                    </mask>
                    <use id="形状结合" fill="#191624" xlink:href="#path-3"></use>
                    <path d="M10.9784391,-0.420884689 L-0.0215609143,7.48768815 C-0.478888578,7.81648898 -0.75,8.34531572 -0.75,8.90857284 L-0.75,22.768373 C-0.75,23.7348713 0.0335016878,24.518373 1,24.518373 L23,24.518373 C23.9664983,24.518373 24.75,23.7348713 24.75,22.768373 L24.75,8.90857284 C24.75,8.34531572 24.4788886,7.81648898 24.0215609,7.48768815 L13.0215609,-0.420884689 C12.4112075,-0.859705104 11.5887925,-0.859705104 10.9784391,-0.420884689 Z M12.1459373,0.797016473 L23.1459373,8.70558931 C23.2112698,8.75256086 23.25,8.82810754 23.25,8.90857284 L23.25,22.768373 C23.25,22.9064441 23.1380712,23.018373 23,23.018373 L1,23.018373 C0.861928813,23.018373 0.75,22.9064441 0.75,22.768373 L0.75,8.90857284 C0.75,8.82810754 0.788730203,8.75256086 0.854062727,8.70558931 L11.8540627,0.797016473 C11.9412561,0.734327842 12.0587439,0.734327842 12.1459373,0.797016473 Z" id="蒙版" fill="#191624" fill-rule="nonzero" mask="url(#mask-4)"></path>
                </g>
            </g>
        </g>
    </g>
</svg>