<?xml version="1.0" encoding="UTF-8"?>
<svg width="32px" height="32px" viewBox="0 0 32 32" version="1.1" xmlns="http://www.w3.org/2000/svg" xmlns:xlink="http://www.w3.org/1999/xlink">
    <title>编组 26</title>
    <defs>
        <rect id="path-1" x="0" y="0" width="32" height="32"></rect>
        <path d="M0.416250906,8.32826577 L11.4162509,0.41969293 C11.7650243,0.168938407 12.2349757,0.168938407 12.5837491,0.41969293 L23.5837491,8.32826577 C23.8450792,8.51615196 24,8.81833867 24,9.14019988 L24,23 C24,23.5522847 23.5522847,24 23,24 L1,24 C0.44771525,24 6.76353751e-17,23.5522847 0,23 L0,9.14019988 C5.3232373e-16,8.81833867 0.154920813,8.51615196 0.416250906,8.32826577 Z" id="path-3"></path>
    </defs>
    <g id="行情页" stroke="none" stroke-width="1" fill="none" fill-rule="evenodd">
        <g id="编组-26">
            <mask id="mask-2" fill="white">
                <use xlink:href="#path-1"></use>
            </mask>
            <g id="蒙版"></g>
            <g mask="url(#mask-2)" id="路径">
                <g transform="translate(4.000000, 4.000000)">
                    <mask id="mask-4" fill="white">
                        <use xlink:href="#path-3"></use>
                    </mask>
                    <use id="蒙版" stroke="#191624" stroke-width="1.5" xlink:href="#path-3"></use>
                    <path d="M10.3585776,16.2100304 C10.7960429,15.1366804 11.9205907,14.6768216 12.8472962,15.2452549 C13.1972411,15.4599082 13.4741491,15.7996143 13.6414224,16.2100304 L17,24.4505241 L15.7198241,25.0517681 L12.3612464,16.8112745 C12.3118608,16.6901034 12.2374112,16.59877 12.1540382,16.5476297 C11.9747002,16.4376252 11.7543101,16.5277489 11.6387536,16.8112745 L8.28017592,25.0517681 L7,24.4505241 L10.3585776,16.2100304 Z" fill="#191624" fill-rule="nonzero" mask="url(#mask-4)"></path>
                </g>
            </g>
        </g>
    </g>
</svg>