<?xml version="1.0" encoding="UTF-8"?>
<svg width="32px" height="32px" viewBox="0 0 32 32" version="1.1" xmlns="http://www.w3.org/2000/svg" xmlns:xlink="http://www.w3.org/1999/xlink">
    <title>矩形 + 路径 4蒙版备份</title>
    <defs>
        <rect id="path-1" x="0" y="0" width="32" height="32"></rect>
    </defs>
    <g id="行情页" stroke="none" stroke-width="1" fill="none" fill-rule="evenodd">
        <g id="矩形-+-路径-4蒙版备份">
            <mask id="mask-2" fill="white">
                <use xlink:href="#path-1"></use>
            </mask>
            <g id="蒙版"></g>
            <path d="M26,5 C27.1045695,5 28,5.8954305 28,7 L28,25 C28,26.1045695 27.1045695,27 26,27 L6,27 C4.8954305,27 4,26.1045695 4,25 L4,7 C4,5.8954305 4.8954305,5 6,5 L26,5 Z M22.5517566,11.1659948 C22.0911482,10.8612681 21.4707215,10.9876351 21.1659948,11.4482434 L18.0305995,16.1875364 L15.0942969,14.1347331 L14.9306508,14.0346429 C14.0264067,13.5388958 12.878127,13.8130156 12.3008766,14.6893139 L9.16490612,19.4498925 C8.86109016,19.9111022 8.98868293,20.5312779 9.44989255,20.8350939 C9.91110216,21.1389098 10.5312779,21.0113171 10.8350939,20.5501075 L13.9710644,15.7895288 L16.8845646,17.8266227 C17.789807,18.4595603 19.0367482,18.2388137 19.6696858,17.3335713 L22.8340052,12.5517566 C23.1387319,12.0911482 23.0123649,11.4707215 22.5517566,11.1659948 Z" id="形状结合" fill="#191624" mask="url(#mask-2)"></path>
            <path d="M26,4.25 L6,4.25 C4.48121694,4.25 3.25,5.48121694 3.25,7 L3.25,25 C3.25,26.5187831 4.48121694,27.75 6,27.75 L26,27.75 C27.5187831,27.75 28.75,26.5187831 28.75,25 L28.75,7 C28.75,5.48121694 27.5187831,4.25 26,4.25 Z M26,5.75 C26.6903559,5.75 27.25,6.30964406 27.25,7 L27.25,25 C27.25,25.6903559 26.6903559,26.25 26,26.25 L6,26.25 C5.30964406,26.25 4.75,25.6903559 4.75,25 L4.75,7 C4.75,6.30964406 5.30964406,5.75 6,5.75 L26,5.75 Z" id="矩形" fill="#191624" fill-rule="nonzero" mask="url(#mask-2)"></path>
        </g>
    </g>
</svg>