<?xml version="1.0" encoding="UTF-8"?>
<svg width="32px" height="32px" viewBox="0 0 32 32" version="1.1" xmlns="http://www.w3.org/2000/svg" xmlns:xlink="http://www.w3.org/1999/xlink">
    <title>编组 25备份</title>
    <defs>
        <rect id="path-1" x="0" y="0" width="32" height="32"></rect>
    </defs>
    <g id="行情页" stroke="none" stroke-width="1" fill="none" fill-rule="evenodd">
        <g id="编组-25备份">
            <mask id="mask-2" fill="white">
                <use xlink:href="#path-1"></use>
            </mask>
            <g id="蒙版"></g>
            <g id="编组-25" mask="url(#mask-2)" fill="#191624">
                <g transform="translate(4.250000, 4.250000)">
                    <path d="M12.25,0.75 C18.6012746,0.75 23.75,5.89872538 23.75,12.25 C23.75,18.6012746 18.6012746,23.75 12.25,23.75 C5.89872538,23.75 0.75,18.6012746 0.75,12.25 C0.75,5.89872538 5.89872538,0.75 12.25,0.75 Z M8.25,7.25 L6.25,7.25 L6.25,13.25 L8.25,13.25 L8.25,7.25 Z M15.25,7.25 L13.25,7.25 L13.25,13.25 L15.25,13.25 L15.25,7.25 Z" id="形状结合" fill-rule="evenodd"></path>
                    <path d="M12.25,0 C5.48451181,0 0,5.48451181 0,12.25 C0,19.0154882 5.48451181,24.5 12.25,24.5 C19.0154882,24.5 24.5,19.0154882 24.5,12.25 C24.5,5.48451181 19.0154882,0 12.25,0 Z M12.25,1.5 C18.1870611,1.5 23,6.31293894 23,12.25 C23,18.1870611 18.1870611,23 12.25,23 C6.31293894,23 1.5,18.1870611 1.5,12.25 C1.5,6.31293894 6.31293894,1.5 12.25,1.5 Z" id="椭圆形" fill-rule="nonzero"></path>
                </g>
            </g>
        </g>
    </g>
</svg>