<?xml version="1.0" encoding="UTF-8"?>
<svg width="14px" height="13px" viewBox="0 0 14 13" version="1.1" xmlns="http://www.w3.org/2000/svg" xmlns:xlink="http://www.w3.org/1999/xlink">
    <title>shoucang</title>
    <g id="行情页" stroke="none" stroke-width="1" fill="none" fill-rule="evenodd">
        <g id="自选备份-3" transform="translate(-531.000000, -229.000000)" fill="#FFB14D" fill-rule="nonzero">
            <g id="编组-17" transform="translate(511.000000, 99.000000)">
                <g id="矩形-+-矩形备份-+-矩形-+-矩形-+-矩形-+-矩形-+-矩形-+-矩形-+-矩形-+-矩形-+-矩形-+-矩形-+-矩形-+-编组-18-+-编组-14-+-编组-12-+-编组-11-+-编组-15备份-+-编组-15备份-2-+-编组-15备份-3-+-编组-15备份-4蒙版" transform="translate(0.000000, 48.000000)">
                    <g id="编组-18" transform="translate(20.000000, 14.000000)">
                        <g id="shoucang" transform="translate(0.000000, 68.000000)">
                            <path d="M4.09630342,12.8222078 C3.50707055,13.1708688 2.73653527,12.9905384 2.3786555,12.422881 C2.20900017,12.1533585 2.15627112,11.8314936 2.23165354,11.5255624 L2.99431371,8.4281131 C3.01281906,8.35465714 2.98747844,8.27745647 2.92833784,8.22711639 L0.431929526,6.15548364 C-0.086602388,5.72549068 -0.146453187,4.97350299 0.296827718,4.47217787 C0.509871959,4.23059809 0.815447569,4.08010995 1.14558904,4.05418471 L4.42180776,3.8000222 C4.49320872,3.79435562 4.55708456,3.74952303 4.58630996,3.68135747 L5.8486018,0.741238953 C6.11163031,0.128748981 6.84314008,-0.16374623 7.48137359,0.0934162157 C7.78575997,0.216611153 8.02659441,0.449505531 8.15128253,0.741238953 L9.41357438,3.68119082 C9.44279976,3.74952303 9.50667562,3.79452229 9.57807658,3.8000222 L12.8546453,4.05435137 C13.5417045,4.10768382 14.0504363,4.68650769 13.9960105,5.3436636 C13.970444,5.65726717 13.8168318,5.94883592 13.5681298,6.15581696 L11.0717215,8.22744972 C11.0136207,8.2756156 10.9873704,8.35361432 11.0057456,8.42827976 L11.7684058,11.525729 C11.9262579,12.1665519 11.5164024,12.812208 10.8473685,12.9667055 C10.5251826,13.0411737 10.1850878,12.9891639 9.90358092,12.8223745 L7.09846849,11.1624017 C7.03822635,11.1263902 6.96165799,11.1263902 6.90141585,11.1624017 L4.09612841,12.8223745 L4.09630342,12.8222078 Z" id="路径"></path>
                        </g>
                    </g>
                </g>
            </g>
        </g>
    </g>
</svg>